<svg width="26" height="26" viewBox="0 0 26 26" fill="none" xmlns="http://www.w3.org/2000/svg">
<path d="M23.1812 0.395508C23.9179 0.395508 24.6245 0.688166 25.1454 1.2091C25.6663 1.73003 25.959 2.43657 25.959 3.17329V22.6177C25.959 23.3544 25.6663 24.061 25.1454 24.5819C24.6245 25.1028 23.9179 25.3955 23.1812 25.3955H3.73676C3.00005 25.3955 2.29351 25.1028 1.77258 24.5819C1.25164 24.061 0.958984 23.3544 0.958984 22.6177V3.17329C0.958984 2.43657 1.25164 1.73003 1.77258 1.2091C2.29351 0.688166 3.00005 0.395508 3.73676 0.395508H23.1812ZM22.4868 21.9233V14.5622C22.4868 13.3613 22.0097 12.2097 21.1606 11.3606C20.3115 10.5114 19.1598 10.0344 17.959 10.0344C16.7784 10.0344 15.4034 10.7566 14.7368 11.84V10.2983H10.8618V21.9233H14.7368V15.0761C14.7368 14.0066 15.5979 13.1316 16.6673 13.1316C17.183 13.1316 17.6776 13.3365 18.0422 13.7011C18.4069 14.0658 18.6118 14.5604 18.6118 15.0761V21.9233H22.4868ZM6.34787 8.11773C6.96671 8.11773 7.5602 7.8719 7.99779 7.43431C8.43537 6.99673 8.68121 6.40323 8.68121 5.7844C8.68121 4.49273 7.63954 3.43717 6.34787 3.43717C5.72535 3.43717 5.12833 3.68447 4.68814 4.12466C4.24795 4.56485 4.00065 5.16187 4.00065 5.7844C4.00065 7.07606 5.05621 8.11773 6.34787 8.11773ZM8.27843 21.9233V10.2983H4.43121V21.9233H8.27843Z" fill="white"/>
</svg>
